<?xml version="1.0" encoding="utf-8"?>
<!-- Generator: Adobe Illustrator 18.1.1, SVG Export Plug-In . SVG Version: 6.00 Build 0)  -->
<!DOCTYPE svg PUBLIC "-//W3C//DTD SVG 1.1//EN" "http://www.w3.org/Graphics/SVG/1.1/DTD/svg11.dtd">
<svg version="1.1" id="Layer_1" xmlns="http://www.w3.org/2000/svg" xmlns:xlink="http://www.w3.org/1999/xlink" x="0px" y="0px"
	 width="500px" height="500px" viewBox="0 0 500 500" enable-background="new 0 0 500 500" xml:space="preserve">
<path fill="#F16370" d="M484,212l-28-45c-4-7-13-9-20-5L257,274c-4,3-10,3-15,0L63,162c-7-4-16-2-20,5l-28,45c-4,7-2,16,5,20
	l220,140c3,2,6,4,10,4l0,0c3,0,7-3,9-4l220-138C486,229,488,219,484,212z"/>
</svg>
