<?xml version="1.0" encoding="utf-8"?>
<!-- Generator: Adobe Illustrator 18.1.1, SVG Export Plug-In . SVG Version: 6.00 Build 0)  -->
<!DOCTYPE svg PUBLIC "-//W3C//DTD SVG 1.1//EN" "http://www.w3.org/Graphics/SVG/1.1/DTD/svg11.dtd">
<svg version="1.1" id="Layer_1" xmlns="http://www.w3.org/2000/svg" xmlns:xlink="http://www.w3.org/1999/xlink" x="0px" y="0px"
	 width="500px" height="176px" viewBox="0 324 500 176" enable-background="new 0 324 500 176" xml:space="preserve">
<g>
	<path fill="#FFFFFF" d="M74,411.2c0.2,0.4,0.4,1,0.5,1.4c0.2-0.5,0.4-1,0.5-1.4c0.2-0.4,0.4-0.9,0.7-1.4L88.8,386
		c0.3-0.4,0.4-0.6,0.7-0.7c0.3-0.1,0.6-0.2,1.1-0.2h3.8v38.8h-4.6v-28.5c0-0.4,0-0.8,0-1.2c0-0.4,0.1-0.9,0.1-1.3L76.8,417
		c-0.4,0.8-1.1,1.2-1.9,1.2h-0.7c-0.8,0-1.4-0.4-1.9-1.2l-13.6-24.4c0.1,0.4,0.1,0.9,0.1,1.3s0,0.9,0,1.2v28.5h-4.6v-38.8H58
		c0.4,0,0.8,0.1,1.1,0.2s0.5,0.4,0.7,0.7l13.4,23.8C73.6,410.2,73.8,410.6,74,411.2z"/>
	<path fill="#FFFFFF" d="M163,423.8h-4.1c-0.4,0-0.9-0.1-1.2-0.4s-0.5-0.5-0.6-0.9l-3.7-9.4H136l-3.7,9.4c-0.1,0.4-0.4,0.6-0.6,0.9
		c-0.3,0.3-0.7,0.4-1.2,0.4h-4L142,385h5.4L163,423.8z M137.6,409.4h14.5l-6.1-15.8c-0.4-1-0.8-2.2-1.2-3.7
		c-0.2,0.7-0.4,1.4-0.6,2.1c-0.2,0.6-0.4,1.2-0.5,1.6L137.6,409.4z"/>
	<path fill="#FFFFFF" d="M200.7,407.6v16.2h-5.2V385h11c2.4,0,4.6,0.3,6.3,0.7c1.8,0.4,3.3,1.2,4.5,2.1c1.2,1,2.1,2.1,2.6,3.4
		s0.8,2.8,0.8,4.5c0,1.3-0.2,2.7-0.6,3.8s-1.1,2.2-1.9,3.2s-1.8,1.8-3,2.4s-2.5,1.2-4,1.5c0.6,0.4,1.2,0.9,1.7,1.6l11.3,15.4h-4.6
		c-1,0-1.7-0.4-2.1-1.1l-10.1-13.8c-0.3-0.4-0.6-0.7-1-0.9c-0.4-0.2-0.9-0.3-1.6-0.3L200.7,407.6L200.7,407.6z M200.7,403.8h5.5
		c1.5,0,2.9-0.2,4-0.5c1.2-0.4,2.1-0.9,2.9-1.6c0.8-0.7,1.3-1.5,1.8-2.4c0.4-1,0.6-2,0.6-3.1c0-2.3-0.8-4-2.3-5.3
		c-1.5-1.2-3.7-1.8-6.8-1.8h-5.7V403.8L200.7,403.8z"/>
	<path fill="#FFFFFF" d="M282,385v4.4h-12.5v34.4h-5.3v-34.4h-12.6V385H282z"/>
	<path fill="#FFFFFF" d="M320.7,423.8h-5.3V385h5.3V423.8z"/>
	<path fill="#FFFFFF" d="M362,385.2c0.3,0.1,0.4,0.4,0.8,0.7l22.5,29.2c-0.1-0.4-0.1-0.9-0.1-1.3s0-0.9,0-1.2V385h4.6v38.8h-2.7
		c-0.4,0-0.8-0.1-1.1-0.2c-0.3-0.1-0.5-0.4-0.8-0.7l-22.4-29.2c0,0.4,0.1,0.9,0.1,1.3s0,0.8,0,1.2v27.7h-4.6v-38.8h2.7
		C361.4,385,361.7,385.1,362,385.2z"/>
	<path fill="#FFFFFF" d="M450.1,385v4.3h-18.7v12.9h15.1v4.1h-15.1v13.2h18.7v4.3h-23.9V385H450.1L450.1,385z"/>
</g>
<g>
	<path fill="#FFFFFF" d="M74,411.2c0.2,0.4,0.4,1,0.5,1.4c0.2-0.5,0.4-1,0.5-1.4c0.2-0.4,0.4-0.9,0.7-1.4L88.8,386
		c0.3-0.4,0.4-0.6,0.7-0.7c0.3-0.1,0.6-0.2,1.1-0.2h3.8v38.8h-4.6v-28.5c0-0.4,0-0.8,0-1.2c0-0.4,0.1-0.9,0.1-1.3L76.8,417
		c-0.4,0.8-1.1,1.2-1.9,1.2h-0.7c-0.8,0-1.4-0.4-1.9-1.2l-13.6-24.4c0.1,0.4,0.1,0.9,0.1,1.3s0,0.9,0,1.2v28.5h-4.6v-38.8H58
		c0.4,0,0.8,0.1,1.1,0.2s0.5,0.4,0.7,0.7l13.4,23.8C73.6,410.2,73.8,410.6,74,411.2z"/>
	<path fill="#FFFFFF" d="M163,423.8h-4.1c-0.4,0-0.9-0.1-1.2-0.4s-0.5-0.5-0.6-0.9l-3.7-9.4H136l-3.7,9.4c-0.1,0.4-0.4,0.6-0.6,0.9
		c-0.3,0.3-0.7,0.4-1.2,0.4h-4L142,385h5.4L163,423.8z M137.6,409.4h14.5l-6.1-15.8c-0.4-1-0.8-2.2-1.2-3.7
		c-0.2,0.7-0.4,1.4-0.6,2.1c-0.2,0.6-0.4,1.2-0.5,1.6L137.6,409.4z"/>
	<path fill="#FFFFFF" d="M200.7,407.6v16.2h-5.2V385h11c2.4,0,4.6,0.3,6.3,0.7c1.8,0.5,3.3,1.2,4.5,2.1c1.2,1,2.1,2.1,2.6,3.4
		s0.8,2.8,0.8,4.5c0,1.3-0.2,2.7-0.6,3.8s-1.1,2.2-1.9,3.2s-1.8,1.8-3,2.4s-2.5,1.2-4,1.5c0.6,0.4,1.2,0.9,1.7,1.6l11.3,15.4h-4.6
		c-1,0-1.7-0.4-2.1-1.1l-10.1-13.8c-0.3-0.4-0.6-0.7-1-0.9c-0.4-0.2-0.9-0.3-1.6-0.3L200.7,407.6L200.7,407.6z M200.7,403.8h5.5
		c1.5,0,2.9-0.2,4-0.5c1.2-0.4,2.1-0.9,2.9-1.6c0.8-0.7,1.3-1.5,1.8-2.4c0.4-1,0.6-2,0.6-3.1c0-2.3-0.8-4-2.3-5.3
		c-1.5-1.2-3.7-1.8-6.8-1.8h-5.7V403.8L200.7,403.8z"/>
	<path fill="#FFFFFF" d="M282,385v4.4h-12.5v34.4h-5.3v-34.4h-12.6V385H282z"/>
	<path fill="#FFFFFF" d="M320.7,423.8h-5.3V385h5.3V423.8z"/>
	<path fill="#FFFFFF" d="M362,385.2c0.3,0.1,0.4,0.4,0.8,0.7l22.5,29.2c-0.1-0.4-0.1-0.9-0.1-1.3s0-0.9,0-1.2V385h4.6v38.8h-2.7
		c-0.4,0-0.8-0.1-1.1-0.2c-0.3-0.2-0.5-0.4-0.8-0.7l-22.4-29.2c0,0.4,0.1,0.9,0.1,1.3s0,0.8,0,1.2v27.7h-4.6v-38.8h2.7
		C361.3,385,361.7,385.1,362,385.2z"/>
	<path fill="#FFFFFF" d="M450.1,385v4.3h-18.7v12.9h15.1v4.1h-15.1v13.2h18.7v4.3h-23.9V385H450.1L450.1,385z"/>
</g>
</svg>
